# Blender 4.2.1 LTS
# www.blender.org
mtllib chessboard.mtl
o Board_Frame
v -24.000000 1.200000 24.000000
v 24.000000 1.200000 24.000000
v -24.000000 1.200000 -24.000000
v 24.000000 1.200000 -24.000000
v -27.120033 -1.200000 -27.120033
v -27.120033 -1.200000 27.120033
v 27.120033 -1.200000 27.120033
v 27.120033 -1.200000 -27.120033
v -27.120033 -0.629929 -27.120033
v -25.290104 1.200000 -25.290104
v -26.584061 0.664026 -26.584061
v -25.290104 1.200000 25.290104
v -27.120033 -0.629929 27.120033
v -26.584061 0.664026 26.584061
v 25.290104 1.200000 25.290104
v 27.120033 -0.629929 27.120033
v 26.584061 0.664026 26.584061
v 25.290104 1.200000 -25.290104
v 27.120033 -0.629929 -27.120033
v 26.584061 0.664026 -26.584061
v -24.000000 1.200000 -18.000000
v -24.000000 1.200000 -12.000000
v -24.000000 1.200000 -6.000000
v -24.000000 1.200000 0.000000
v -24.000000 1.200000 6.000000
v -24.000000 1.200000 12.000000
v -24.000000 1.200000 18.000000
v 24.000000 1.200000 18.000000
v 24.000000 1.200000 12.000000
v 24.000000 1.200000 6.000000
v 24.000000 1.200000 0.000000
v 24.000000 1.200000 -6.000000
v 24.000000 1.200000 -12.000000
v 24.000000 1.200000 -18.000000
v -27.120033 -1.200000 -20.340025
v -27.120033 -1.200000 -13.560016
v -27.120033 -1.200000 -6.780007
v -27.120033 -1.200000 0.000001
v -27.120033 -1.200000 6.780009
v -27.120033 -1.200000 13.560019
v -27.120033 -1.200000 20.340027
v 27.120033 -1.200000 20.340025
v 27.120033 -1.200000 13.560016
v 27.120033 -1.200000 6.780007
v 27.120033 -1.200000 -0.000001
v 27.120033 -1.200000 -6.780009
v 27.120033 -1.200000 -13.560019
v 27.120033 -1.200000 -20.340027
v -25.290104 1.200000 -18.967579
v -25.290104 1.200000 -12.645052
v -25.290104 1.200000 -6.322526
v -25.290104 1.200000 0.000000
v -25.290104 1.200000 6.322526
v -25.290104 1.200000 12.645052
v -25.290104 1.200000 18.967579
v -26.584061 0.664026 19.938046
v -26.584061 0.664026 13.292029
v -26.584061 0.664026 6.646014
v -26.584061 0.664026 -0.000001
v -26.584061 0.664026 -6.646016
v -26.584061 0.664026 -13.292032
v -26.584061 0.664026 -19.938047
v -27.120033 -0.629929 20.340025
v -27.120033 -0.629929 13.560016
v -27.120033 -0.629929 6.780007
v -27.120033 -0.629929 -0.000001
v -27.120033 -0.629929 -6.780009
v -27.120033 -0.629929 -13.560019
v -27.120033 -0.629929 -20.340027
v 25.290104 1.200000 18.967579
v 25.290104 1.200000 12.645052
v 25.290104 1.200000 6.322526
v 25.290104 1.200000 0.000000
v 25.290104 1.200000 -6.322526
v 25.290104 1.200000 -12.645052
v 25.290104 1.200000 -18.967579
v 26.584061 0.664026 -19.938046
v 26.584061 0.664026 -13.292029
v 26.584061 0.664026 -6.646014
v 26.584061 0.664026 0.000001
v 26.584061 0.664026 6.646016
v 26.584061 0.664026 13.292032
v 26.584061 0.664026 19.938047
v 27.120033 -0.629929 -20.340025
v 27.120033 -0.629929 -13.560016
v 27.120033 -0.629929 -6.780007
v 27.120033 -0.629929 0.000001
v 27.120033 -0.629929 6.780009
v 27.120033 -0.629929 13.560019
v 27.120033 -0.629929 20.340027
v -18.000000 1.200000 24.000000
v -12.000000 1.200000 24.000000
v -6.000000 1.200000 24.000000
v 0.000000 1.200000 24.000000
v 6.000000 1.200000 24.000000
v 12.000000 1.200000 24.000000
v 18.000000 1.200000 24.000000
v 18.000000 1.200000 -24.000000
v 12.000000 1.200000 -24.000000
v 6.000000 1.200000 -24.000000
v 0.000000 1.200000 -24.000000
v -6.000000 1.200000 -24.000000
v -12.000000 1.200000 -24.000000
v -18.000000 1.200000 -24.000000
v -20.340025 -1.200000 27.120033
v -13.560016 -1.200000 27.120033
v -6.780007 -1.200000 27.120033
v 0.000001 -1.200000 27.120033
v 6.780009 -1.200000 27.120033
v 13.560019 -1.200000 27.120033
v 20.340027 -1.200000 27.120033
v 20.340025 -1.200000 -27.120033
v 13.560016 -1.200000 -27.120033
v 6.780007 -1.200000 -27.120033
v -0.000001 -1.200000 -27.120033
v -6.780009 -1.200000 -27.120033
v -13.560019 -1.200000 -27.120033
v -20.340027 -1.200000 -27.120033
v -18.967579 1.200000 25.290104
v -12.645052 1.200000 25.290104
v -6.322526 1.200000 25.290104
v 0.000000 1.200000 25.290104
v 6.322526 1.200000 25.290104
v 12.645052 1.200000 25.290104
v 18.967579 1.200000 25.290104
v 19.938046 0.664026 26.584061
v 13.292029 0.664026 26.584061
v 6.646014 0.664026 26.584061
v -0.000001 0.664026 26.584061
v -6.646016 0.664026 26.584061
v -13.292032 0.664026 26.584061
v -19.938047 0.664026 26.584061
v 20.340025 -0.629929 27.120033
v 13.560016 -0.629929 27.120033
v 6.780007 -0.629929 27.120033
v -0.000001 -0.629929 27.120033
v -6.780009 -0.629929 27.120033
v -13.560019 -0.629929 27.120033
v -20.340027 -0.629929 27.120033
v 18.967579 1.200000 -25.290104
v 12.645052 1.200000 -25.290104
v 6.322526 1.200000 -25.290104
v 0.000000 1.200000 -25.290104
v -6.322526 1.200000 -25.290104
v -12.645052 1.200000 -25.290104
v -18.967579 1.200000 -25.290104
v -19.938046 0.664026 -26.584061
v -13.292029 0.664026 -26.584061
v -6.646014 0.664026 -26.584061
v 0.000001 0.664026 -26.584061
v 6.646016 0.664026 -26.584061
v 13.292032 0.664026 -26.584061
v 19.938047 0.664026 -26.584061
v -20.340025 -0.629929 -27.120033
v -13.560016 -0.629929 -27.120033
v -6.780007 -0.629929 -27.120033
v 0.000001 -0.629929 -27.120033
v 6.780009 -0.629929 -27.120033
v 13.560019 -0.629929 -27.120033
v 20.340027 -0.629929 -27.120033
v -20.340025 -1.200000 -20.340025
v -13.560016 -1.200000 -20.340025
v -6.780007 -1.200000 -20.340025
v 0.000001 -1.200000 -20.340025
v 6.780009 -1.200000 -20.340025
v 13.560019 -1.200000 -20.340025
v 20.340027 -1.200000 -20.340025
v -20.340025 -1.200000 -13.560016
v -13.560016 -1.200000 -13.560016
v -6.780007 -1.200000 -13.560016
v 0.000001 -1.200000 -13.560016
v 6.780009 -1.200000 -13.560016
v 13.560019 -1.200000 -13.560017
v 20.340027 -1.200000 -13.560019
v -20.340025 -1.200000 -6.780007
v -13.560016 -1.200000 -6.780007
v -6.780007 -1.200000 -6.780008
v 0.000001 -1.200000 -6.780008
v 6.780009 -1.200000 -6.780008
v 13.560019 -1.200000 -6.780008
v 20.340027 -1.200000 -6.780009
v -20.340025 -1.200000 0.000001
v -13.560016 -1.200000 0.000001
v -6.780007 -1.200000 0.000000
v 0.000001 -1.200000 0.000000
v 6.780009 -1.200000 -0.000000
v 13.560019 -1.200000 -0.000001
v 20.340027 -1.200000 -0.000001
v -20.340025 -1.200000 6.780009
v -13.560016 -1.200000 6.780009
v -6.780007 -1.200000 6.780009
v 0.000001 -1.200000 6.780008
v 6.780009 -1.200000 6.780008
v 13.560019 -1.200000 6.780008
v 20.340027 -1.200000 6.780008
v -20.340025 -1.200000 13.560019
v -13.560016 -1.200000 13.560019
v -6.780007 -1.200000 13.560019
v 0.000001 -1.200000 13.560019
v 6.780009 -1.200000 13.560019
v 13.560019 -1.200000 13.560017
v 20.340027 -1.200000 13.560016
v -20.340025 -1.200000 20.340027
v -13.560016 -1.200000 20.340027
v -6.780007 -1.200000 20.340027
v 0.000001 -1.200000 20.340027
v 6.780009 -1.200000 20.340027
v 13.560019 -1.200000 20.340027
v 20.340027 -1.200000 20.340025
v 18.000000 0.000000 18.000000
v 18.000000 0.000000 11.999999
v 12.000002 0.000000 18.000000
v 12.000002 0.000000 11.999999
v 6.000001 0.000000 18.000000
v 6.000001 0.000000 12.000000
v 0.000001 0.000000 18.000000
v -5.999999 0.000000 18.000000
v -6.000000 0.000000 12.000000
v -11.999999 0.000000 24.000000
v -11.999999 0.000000 18.000000
v -11.999999 0.000000 12.000002
v -18.000000 0.000000 18.000000
v -23.999998 0.000000 24.000004
v -24.000000 0.000000 18.000004
v -24.000000 0.000000 12.000002
v 24.000000 0.000000 5.999999
v 18.000000 0.000000 5.999999
v 18.000000 0.000000 -0.000001
v 12.000000 0.000000 6.000000
v 12.000000 0.000000 -0.000001
v 6.000001 0.000000 6.000000
v 0.000000 0.000000 6.000000
v 0.000001 0.000000 12.000000
v 0.000000 0.000000 0.000000
v -6.000000 0.000000 6.000001
v -6.000000 0.000000 0.000000
v -12.000000 0.000000 6.000001
v -18.000000 0.000000 12.000002
v -18.000000 0.000000 6.000001
v -18.000000 0.000000 0.000001
v -24.000000 0.000000 6.000001
v 18.000000 0.000000 -6.000001
v 12.000000 0.000000 -6.000001
v 6.000000 0.000000 -0.000000
v 6.000000 0.000000 -6.000001
v 6.000000 0.000000 -12.000000
v -0.000001 0.000000 -12.000000
v -0.000000 0.000000 -6.000000
v -6.000001 0.000000 -6.000000
v -12.000000 0.000000 0.000001
v -12.000000 0.000000 -6.000000
v -18.000000 0.000000 -5.999999
v -24.000000 0.000000 0.000001
v -24.000000 0.000000 -5.999999
v 18.000000 0.000000 -12.000002
v 18.000000 0.000000 -18.000000
v 17.999998 0.000000 -24.000000
v 11.999999 0.000000 -12.000002
v 11.999999 0.000000 -18.000000
v 5.999999 0.000000 -18.000000
v -0.000001 0.000000 -18.000000
v -0.000001 0.000000 -24.000000
v -6.000001 0.000000 -12.000000
v -6.000001 0.000000 -18.000000
v -6.000001 0.000000 -24.000000
v -12.000002 0.000000 -11.999999
v -12.000002 0.000000 -18.000000
v -12.000002 0.000000 -24.000000
v -18.000000 0.000000 -11.999999
v -18.000000 0.000000 -18.000000
v -18.000004 0.000000 -24.000000
v -24.000000 0.000000 -17.999998
v -24.000004 0.000000 -23.999998
v 24.000000 0.000000 24.000000
v 24.000000 0.000000 -24.000000
v -24.000000 0.000000 -12.000000
v 24.000000 0.000000 18.000000
v 24.000000 0.000000 12.000000
v 24.000000 0.000000 0.000000
v 24.000000 0.000000 -6.000000
v 24.000000 0.000000 -12.000000
v 24.000000 0.000000 -18.000000
v -18.000000 0.000000 24.000000
v -6.000000 0.000000 24.000000
v 0.000000 0.000000 24.000000
v 6.000000 0.000000 24.000000
v 12.000000 0.000000 24.000000
v 18.000000 0.000000 24.000000
v 12.000000 0.000000 -24.000000
v 6.000000 0.000000 -24.000000
vn -0.0000 -1.0000 -0.0000
vn -1.0000 -0.0000 -0.0000
vn -0.0000 -0.0000 1.0000
vn -0.0000 -0.0000 -1.0000
vn -0.0000 1.0000 -0.0000
vn 0.3827 -0.9239 -0.0000
vn 0.9239 -0.3827 -0.0000
vn -0.0000 -0.9239 -0.3827
vn -0.0000 -0.3827 -0.9239
vn -0.3827 -0.9239 -0.0000
vn -0.9239 -0.3827 -0.0000
vn -0.0000 -0.9239 0.3827
vn -0.0000 -0.3827 0.9239
vn 1.0000 -0.0000 -0.0000
s 0
usemtl Wooden_Finish
f 27//1 1//1 12//1 55//1
f 84//2 19//2 8//2 48//2
f 154//3 9//3 5//3 118//3
f 97//1 2//1 15//1 125//1
f 34//1 4//1 18//1 76//1
f 104//1 3//1 10//1 146//1
f 133//4 16//4 7//4 111//4
f 209//5 111//5 7//5 42//5
f 55//6 12//6 14//6 56//6
f 56//7 14//7 13//7 63//7
f 125//8 15//8 17//8 126//8
f 126//9 17//9 16//9 133//9
f 76//10 18//10 20//10 77//10
f 77//11 20//11 19//11 84//11
f 146//12 10//12 11//12 147//12
f 147//13 11//13 9//13 154//13
f 63//14 13//14 6//14 41//14
f 9//14 69//14 35//14 5//14
f 69//14 68//14 36//14 35//14
f 68//14 67//14 37//14 36//14
f 67//14 66//14 38//14 37//14
f 66//14 65//14 39//14 38//14
f 65//14 64//14 40//14 39//14
f 64//14 63//14 41//14 40//14
f 17//11 83//11 90//11 16//11
f 83//11 82//11 89//11 90//11
f 82//11 81//11 88//11 89//11
f 81//11 80//11 87//11 88//11
f 80//11 79//11 86//11 87//11
f 79//11 78//11 85//11 86//11
f 78//11 77//11 84//11 85//11
f 15//10 70//10 83//10 17//10
f 70//10 71//10 82//10 83//10
f 71//10 72//10 81//10 82//10
f 72//10 73//10 80//10 81//10
f 73//10 74//10 79//10 80//10
f 74//10 75//10 78//10 79//10
f 75//10 76//10 77//10 78//10
f 11//7 62//7 69//7 9//7
f 62//7 61//7 68//7 69//7
f 61//7 60//7 67//7 68//7
f 60//7 59//7 66//7 67//7
f 59//7 58//7 65//7 66//7
f 58//7 57//7 64//7 65//7
f 57//7 56//7 63//7 64//7
f 10//6 49//6 62//6 11//6
f 49//6 50//6 61//6 62//6
f 50//6 51//6 60//6 61//6
f 51//6 52//6 59//6 60//6
f 52//6 53//6 58//6 59//6
f 53//6 54//6 57//6 58//6
f 54//6 55//6 56//6 57//6
f 112//5 167//5 48//5 8//5
f 167//5 174//5 47//5 48//5
f 174//5 181//5 46//5 47//5
f 181//5 188//5 45//5 46//5
f 188//5 195//5 44//5 45//5
f 195//5 202//5 43//5 44//5
f 202//5 209//5 42//5 43//5
f 2//1 28//1 70//1 15//1
f 28//1 29//1 71//1 70//1
f 29//1 30//1 72//1 71//1
f 30//1 31//1 73//1 72//1
f 31//1 32//1 74//1 73//1
f 32//1 33//1 75//1 74//1
f 33//1 34//1 76//1 75//1
f 16//2 90//2 42//2 7//2
f 90//2 89//2 43//2 42//2
f 89//2 88//2 44//2 43//2
f 88//2 87//2 45//2 44//2
f 87//2 86//2 46//2 45//2
f 86//2 85//2 47//2 46//2
f 85//2 84//2 48//2 47//2
f 3//1 21//1 49//1 10//1
f 21//1 22//1 50//1 49//1
f 22//1 23//1 51//1 50//1
f 23//1 24//1 52//1 51//1
f 24//1 25//1 53//1 52//1
f 25//1 26//1 54//1 53//1
f 26//1 27//1 55//1 54//1
f 40//5 41//5 203//5 196//5
f 196//5 203//5 204//5 197//5
f 197//5 204//5 205//5 198//5
f 198//5 205//5 206//5 199//5
f 199//5 206//5 207//5 200//5
f 200//5 207//5 208//5 201//5
f 201//5 208//5 209//5 202//5
f 39//5 40//5 196//5 189//5
f 189//5 196//5 197//5 190//5
f 190//5 197//5 198//5 191//5
f 191//5 198//5 199//5 192//5
f 192//5 199//5 200//5 193//5
f 193//5 200//5 201//5 194//5
f 194//5 201//5 202//5 195//5
f 38//5 39//5 189//5 182//5
f 182//5 189//5 190//5 183//5
f 183//5 190//5 191//5 184//5
f 184//5 191//5 192//5 185//5
f 185//5 192//5 193//5 186//5
f 186//5 193//5 194//5 187//5
f 187//5 194//5 195//5 188//5
f 37//5 38//5 182//5 175//5
f 175//5 182//5 183//5 176//5
f 176//5 183//5 184//5 177//5
f 177//5 184//5 185//5 178//5
f 178//5 185//5 186//5 179//5
f 179//5 186//5 187//5 180//5
f 180//5 187//5 188//5 181//5
f 36//5 37//5 175//5 168//5
f 168//5 175//5 176//5 169//5
f 169//5 176//5 177//5 170//5
f 170//5 177//5 178//5 171//5
f 171//5 178//5 179//5 172//5
f 172//5 179//5 180//5 173//5
f 173//5 180//5 181//5 174//5
f 35//5 36//5 168//5 161//5
f 161//5 168//5 169//5 162//5
f 162//5 169//5 170//5 163//5
f 163//5 170//5 171//5 164//5
f 164//5 171//5 172//5 165//5
f 165//5 172//5 173//5 166//5
f 166//5 173//5 174//5 167//5
f 5//5 35//5 161//5 118//5
f 118//5 161//5 162//5 117//5
f 117//5 162//5 163//5 116//5
f 116//5 163//5 164//5 115//5
f 115//5 164//5 165//5 114//5
f 114//5 165//5 166//5 113//5
f 113//5 166//5 167//5 112//5
f 20//13 153//13 160//13 19//13
f 153//13 152//13 159//13 160//13
f 152//13 151//13 158//13 159//13
f 151//13 150//13 157//13 158//13
f 150//13 149//13 156//13 157//13
f 149//13 148//13 155//13 156//13
f 148//13 147//13 154//13 155//13
f 18//12 140//12 153//12 20//12
f 140//12 141//12 152//12 153//12
f 141//12 142//12 151//12 152//12
f 142//12 143//12 150//12 151//12
f 143//12 144//12 149//12 150//12
f 144//12 145//12 148//12 149//12
f 145//12 146//12 147//12 148//12
f 14//9 132//9 139//9 13//9
f 132//9 131//9 138//9 139//9
f 131//9 130//9 137//9 138//9
f 130//9 129//9 136//9 137//9
f 129//9 128//9 135//9 136//9
f 128//9 127//9 134//9 135//9
f 127//9 126//9 133//9 134//9
f 12//8 119//8 132//8 14//8
f 119//8 120//8 131//8 132//8
f 120//8 121//8 130//8 131//8
f 121//8 122//8 129//8 130//8
f 122//8 123//8 128//8 129//8
f 123//8 124//8 127//8 128//8
f 124//8 125//8 126//8 127//8
f 41//5 6//5 105//5 203//5
f 203//5 105//5 106//5 204//5
f 204//5 106//5 107//5 205//5
f 205//5 107//5 108//5 206//5
f 206//5 108//5 109//5 207//5
f 207//5 109//5 110//5 208//5
f 208//5 110//5 111//5 209//5
f 13//4 139//4 105//4 6//4
f 139//4 138//4 106//4 105//4
f 138//4 137//4 107//4 106//4
f 137//4 136//4 108//4 107//4
f 136//4 135//4 109//4 108//4
f 135//4 134//4 110//4 109//4
f 134//4 133//4 111//4 110//4
f 4//1 98//1 140//1 18//1
f 98//1 99//1 141//1 140//1
f 99//1 100//1 142//1 141//1
f 100//1 101//1 143//1 142//1
f 101//1 102//1 144//1 143//1
f 102//1 103//1 145//1 144//1
f 103//1 104//1 146//1 145//1
f 1//1 91//1 119//1 12//1
f 91//1 92//1 120//1 119//1
f 92//1 93//1 121//1 120//1
f 93//1 94//1 122//1 121//1
f 94//1 95//1 123//1 122//1
f 95//1 96//1 124//1 123//1
f 96//1 97//1 125//1 124//1
f 19//3 160//3 112//3 8//3
f 160//3 159//3 113//3 112//3
f 159//3 158//3 114//3 113//3
f 158//3 157//3 115//3 114//3
f 157//3 156//3 116//3 115//3
f 156//3 155//3 117//3 116//3
f 155//3 154//3 118//3 117//3
f 103//4 102//4 265//4 268//4
f 32//14 31//14 279//14 280//14
f 104//4 103//4 268//4 271//4
f 33//14 32//14 280//14 281//14
f 91//3 1//3 223//3 283//3
f 34//14 33//14 281//14 282//14
f 92//3 91//3 283//3 219//3
f 21//2 3//2 273//2 272//2
f 93//3 92//3 219//3 284//3
f 22//2 21//2 272//2 276//2
f 23//2 22//2 276//2 254//2
f 94//3 93//3 284//3 285//3
f 95//3 94//3 285//3 286//3
f 24//2 23//2 254//2 253//2
f 96//3 95//3 286//3 287//3
f 25//2 24//2 253//2 241//2
f 1//2 27//2 224//2 223//2
f 97//3 96//3 287//3 288//3
f 26//2 25//2 241//2 225//2
f 2//3 97//3 288//3 274//3
f 98//4 4//4 275//4 257//4
f 27//2 26//2 225//2 224//2
f 4//14 34//14 282//14 275//14
f 99//4 98//4 257//4 289//4
f 28//14 2//14 274//14 277//14
f 3//4 104//4 271//4 273//4
f 100//4 99//4 289//4 290//4
f 29//14 28//14 277//14 278//14
f 101//4 100//4 290//4 262//4
f 30//14 29//14 278//14 226//14
f 102//4 101//4 262//4 265//4
f 31//14 30//14 226//14 279//14
usemtl White_Square
f 274//5 277//5 210//5 288//5
f 210//5 211//5 213//5 212//5
f 287//5 212//5 214//5 286//5
f 214//5 215//5 233//5 216//5
f 285//5 216//5 217//5 284//5
f 217//5 218//5 221//5 220//5
f 219//5 220//5 222//5 283//5
f 222//5 238//5 225//5 224//5
f 278//5 226//5 227//5 211//5
f 227//5 228//5 230//5 229//5
f 213//5 229//5 231//5 215//5
f 231//5 244//5 234//5 232//5
f 233//5 232//5 235//5 218//5
f 235//5 236//5 250//5 237//5
f 221//5 237//5 239//5 238//5
f 239//5 240//5 253//5 241//5
f 279//5 280//5 242//5 228//5
f 242//5 255//5 258//5 243//5
f 230//5 243//5 245//5 244//5
f 245//5 246//5 247//5 248//5
f 234//5 248//5 249//5 236//5
f 249//5 263//5 266//5 251//5
f 250//5 251//5 252//5 240//5
f 252//5 269//5 276//5 254//5
f 281//5 282//5 256//5 255//5
f 256//5 257//5 289//5 259//5
f 258//5 259//5 260//5 246//5
f 260//5 290//5 262//5 261//5
f 247//5 261//5 264//5 263//5
f 264//5 265//5 268//5 267//5
f 266//5 267//5 270//5 269//5
f 270//5 271//5 273//5 272//5
usemtl Black_Square
f 277//5 278//5 211//5 210//5
f 288//5 210//5 212//5 287//5
f 212//5 213//5 215//5 214//5
f 286//5 214//5 216//5 285//5
f 216//5 233//5 218//5 217//5
f 284//5 217//5 220//5 219//5
f 220//5 221//5 238//5 222//5
f 283//5 222//5 224//5 223//5
f 226//5 279//5 228//5 227//5
f 211//5 227//5 229//5 213//5
f 229//5 230//5 244//5 231//5
f 215//5 231//5 232//5 233//5
f 232//5 234//5 236//5 235//5
f 218//5 235//5 237//5 221//5
f 237//5 250//5 240//5 239//5
f 238//5 239//5 241//5 225//5
f 280//5 281//5 255//5 242//5
f 228//5 242//5 243//5 230//5
f 243//5 258//5 246//5 245//5
f 244//5 245//5 248//5 234//5
f 248//5 247//5 263//5 249//5
f 236//5 249//5 251//5 250//5
f 251//5 266//5 269//5 252//5
f 240//5 252//5 254//5 253//5
f 282//5 275//5 257//5 256//5
f 255//5 256//5 259//5 258//5
f 259//5 289//5 290//5 260//5
f 246//5 260//5 261//5 247//5
f 261//5 262//5 265//5 264//5
f 263//5 264//5 267//5 266//5
f 267//5 268//5 271//5 270//5
f 269//5 270//5 272//5 276//5
